# xmcd CD database file
#
# Track frame offsets:
#	150
#	28517
#	56892
#	77165
#	97617
#	117585
#	138980
#
# Disc length: 2224 seconds
#
# Revision: 4
# Processed by: cddbd v1.5.1PL0 Copyright (c) Steve Scherf et al.
# Submitted via: CDex 1.51
#
DISCID=5508ae07
DTITLE=LEO GANDELMAN - LEO GANDELMAN
DYEAR=1987
DGENRE=Jazz
TTITLE0=A ILHA
TTITLE1=SAX DRIVER
TTITLE2=GENTE DA RUA
TTITLE3=SEQUESTRO DA BANDA
TTITLE4=VIAGEM (SE EU SOUBESSE)
TTITLE5=CASTELO DE AREIA
TTITLE6=FOLHA MORTA
EXTD=YEAR: 1987
EXTT0=
EXTT1=
EXTT2=
EXTT3=
EXTT4=
EXTT5=
EXTT6=
PLAYORDER=
